<?xml version="1.0" encoding="UTF-8" standalone="no"?>
<!-- Created with Inkscape (http://www.inkscape.org/) -->

<svg
   xmlns:dc="http://purl.org/dc/elements/1.1/"
   xmlns:cc="http://creativecommons.org/ns#"
   xmlns:rdf="http://www.w3.org/1999/02/22-rdf-syntax-ns#"
   xmlns:svg="http://www.w3.org/2000/svg"
   xmlns="http://www.w3.org/2000/svg"
   xmlns:sodipodi="http://sodipodi.sourceforge.net/DTD/sodipodi-0.dtd"
   xmlns:inkscape="http://www.inkscape.org/namespaces/inkscape"
   width="210mm"
   height="297mm"
   viewBox="0 0 210 297"
   version="1.1"
   id="svg8"
   inkscape:version="0.92.1 r15371"
   sodipodi:docname="logo.svg">
  <defs
     id="defs2" />
  <sodipodi:namedview
     id="base"
     pagecolor="#ffffff"
     bordercolor="#666666"
     borderopacity="1.0"
     inkscape:pageopacity="0.0"
     inkscape:pageshadow="2"
     inkscape:zoom="0.98994949"
     inkscape:cx="368.58063"
     inkscape:cy="735.94496"
     inkscape:document-units="mm"
     inkscape:current-layer="layer1"
     showgrid="false"
     inkscape:window-width="1366"
     inkscape:window-height="705"
     inkscape:window-x="-8"
     inkscape:window-y="-8"
     inkscape:window-maximized="1" />
  <metadata
     id="metadata5">
    <rdf:RDF>
      <cc:Work
         rdf:about="">
        <dc:format>image/svg+xml</dc:format>
        <dc:type
           rdf:resource="http://purl.org/dc/dcmitype/StillImage" />
        <dc:title></dc:title>
      </cc:Work>
    </rdf:RDF>
  </metadata>
  <g
     inkscape:label="Capa 1"
     inkscape:groupmode="layer"
     id="layer1">
    <path
       inkscape:connector-curvature="0"
       id="path31"
       d="M 16.998263,94.681577 V 62.534693 H 91.346178 165.6941 V 94.681577 126.82845 H 91.346178 16.998263 Z m 96.277027,23.084893 c 0.0172,-0.69122 0.0938,-1.25677 0.1702,-1.25677 0.0764,0 0.99443,0.43084 2.04007,0.95742 1.16625,0.58731 1.93903,0.84382 1.99911,0.66357 0.0625,-0.18754 0.25773,-0.20979 0.53963,-0.0615 0.32799,0.17255 1.36103,-0.30576 4.01355,-1.85832 3.1306,-1.8324 4.19534,-2.6116 3.5686,-2.6116 -0.0988,0 -1.73802,0.83344 -3.64268,1.85209 -1.90466,1.01864 -3.53257,1.85208 -3.61757,1.85208 -0.085,0 -0.35754,-0.32742 -0.60565,-0.7276 l -0.45112,-0.72761 -0.007,0.86285 -0.007,0.86285 -2.08715,-1.0494 -2.08715,-1.0494 0.12434,-1.66553 c 0.0684,-0.91604 0.20394,-3.08921 0.30122,-4.82925 0.17286,-3.09209 0.19185,-3.16742 0.83833,-3.32676 0.60513,-0.14915 0.6164,-0.17659 0.13229,-0.32226 -0.29104,-0.0876 -0.94589,-0.23653 -1.45521,-0.33101 -0.50932,-0.0945 -1.14174,-0.23279 -1.40537,-0.30734 -0.41592,-0.11762 -0.45721,-0.0177 -0.31213,0.75566 0.12948,0.69021 0.0504,0.99691 -0.35066,1.35986 -0.50346,0.45563 -0.58663,0.39947 -2.99515,-2.02253 -1.36253,-1.37014 -3.16792,-2.94506 -4.01198,-3.49981 -1.35789,-0.89246 -1.52551,-1.09834 -1.45521,-1.787353 0.0739,-0.72468 0.21712,-0.81894 2.06383,-1.35879 2.25732,-0.65988 3.83573,-1.41932 5.56198,-2.67611 0.94051,-0.68474 1.29826,-0.81397 1.67286,-0.60433 0.38565,0.21581 0.44319,0.46392 0.30175,1.3011 -0.16328,0.9664 -0.1326,1.03443 0.46653,1.03443 0.73211,0 4.16771,-3.3605 4.16771,-4.07661 0,-0.3424 -1.56994,-6.27239 -1.98134,-7.48392 -0.0692,-0.20385 1.82101,-0.95388 5.33442,-2.11666 2.9929,-0.99052 5.5027,-1.9578 5.57735,-2.14951 0.0746,-0.19172 -0.017,-0.634 -0.20373,-0.98285 -0.24872,-0.46473 -0.29105,-1.32284 -0.15837,-3.21032 0.0996,-1.41684 0.20676,-2.58867 0.23814,-2.60407 0.0314,-0.0154 1.45611,-1.12256 3.16604,-2.46036 1.70994,-1.3378 3.22833,-2.43237 3.37422,-2.43237 0.14589,0 0.77863,0.32743 1.40609,0.72761 l 1.14085,0.7276 -0.59426,4.23333 c -0.32684,2.32834 -0.60245,4.4412 -0.61246,4.69526 -0.01,0.25406 0.75571,1.30523 1.70159,2.33595 l 1.71979,1.87402 v 4.21638 4.21638 l -0.7679,0.46699 c -0.72335,0.4399 -0.74847,0.51258 -0.43302,1.25288 0.31832,0.74705 1.38793,1.91926 1.54049,1.68827 0.0394,-0.0597 1.23756,-1.87644 2.66244,-4.03709 1.42489,-2.16066 2.64386,-3.87532 2.70882,-3.81037 0.0649,0.065 1.01459,2.30687 2.11029,4.98203 1.75152,4.27635 1.95319,4.9368 1.66937,5.46713 -0.20426,0.38166 -0.48323,0.55228 -0.75959,0.46456 -0.37618,-0.11939 -0.48195,0.27467 -0.76255,2.841163 -0.17919,1.63888 -0.39174,3.36674 -0.47235,3.83968 -0.12582,0.73827 -0.0698,0.8599 0.39608,0.8599 0.42713,0 0.56013,-0.19548 0.62476,-0.91828 l 0.0821,-0.91827 3.49025,2.6647 3.49025,2.6647 -3.35796,3.98425 -3.35796,3.98425 -0.0806,-1.23276 c -0.0444,-0.67802 -0.16341,-1.23273 -0.26458,-1.2327 -0.10117,4e-5 -1.61269,0.2357 -3.35894,0.52368 -1.74625,0.28799 -3.49908,0.52609 -3.89519,0.52911 -0.4289,0.003 -2.74562,-1.12157 -5.72797,-2.7811 l -5.00779,-2.78658 -0.95275,0.45433 c -1.12488,0.53642 -1.2728,1.02828 -0.22516,0.74868 0.40019,-0.1068 0.85346,-0.19909 1.00728,-0.20507 0.15382,-0.006 2.50631,1.27108 5.22776,2.83793 l 4.9481,2.84881 3.45456,-0.55576 c 1.90001,-0.30566 3.55858,-0.55576 3.68571,-0.55576 0.12713,0 0.31279,0.56555 0.41257,1.25678 0.0998,0.69122 0.25591,1.39686 0.34694,1.56809 0.14419,0.2712 7.95163,-8.92819 8.14499,-9.59712 0.038,-0.13157 -1.74179,-1.5041 -3.95516,-3.05008 -3.90157,-2.72516 -4.0229,-2.83813 -3.97819,-3.70417 0.11,-2.1309 0.37273,-3.08627 0.88561,-3.22039 0.2809,-0.0735 0.64561,-0.429593 0.81046,-0.791393 0.26197,-0.57496 0.004,-1.41135 -2.04415,-6.63911 -1.28913,-3.2897 -2.4159,-5.98213 -2.50393,-5.98319 -0.088,-0.001 -1.38522,1.84355 -2.88265,4.09913 -1.49743,2.25557 -2.82438,4.10104 -2.94879,4.10104 -0.41323,0 -0.23389,-0.70479 0.30296,-1.19063 0.49108,-0.44442 0.52916,-0.8149 0.52916,-5.14848 v -4.66959 l -0.94938,-0.91179 c -0.52216,-0.50149 -1.29391,-1.34293 -1.715,-1.86987 l -0.76562,-0.95807 0.65271,-4.3336 c 0.35899,-2.38348 0.65449,-4.54046 0.65667,-4.79329 0.003,-0.30573 -0.61769,-0.77275 -1.85211,-1.3944 l -1.85608,-0.9347 -2.90642,2.00958 c -2.77893,1.92142 -2.90643,1.97969 -2.90643,1.32825 0,-0.67527 -0.0188,-0.68133 -2.11667,-0.68133 -2.48296,0 -2.31231,-0.43815 -1.67458,4.29948 0.41431,3.07797 0.50174,3.37379 0.99819,3.37749 0.87582,0.007 1.16163,0.33424 1.25246,1.43607 l 0.0854,1.0358 -5.21165,1.60631 c -2.8664,0.88347 -5.28566,1.68401 -5.37613,1.77897 -0.0905,0.095 0.30812,1.964 0.88576,4.15342 l 1.05024,3.98075 -1.40395,1.53513 -1.40395,1.53512 0.0413,-0.88312 c 0.0366,-0.78343 -0.0678,-0.92733 -0.92504,-1.27475 -0.95023,-0.38512 -0.98639,-0.37633 -2.17017,0.52727 -1.5406,1.17597 -4.11536,2.39057 -6.64574,3.13502 -1.157,0.34039 -1.99171,0.73008 -1.99171,0.92984 0,0.18913 -0.22275,0.34387 -0.49499,0.34387 -0.71746,0 -1.083103,-3.06237 -0.42325,-3.54487 0.34585,-0.25289 0.48437,-1.05928 0.666,-3.87732 0.12613,-1.95691 0.23448,-3.81476 0.24078,-4.12856 0.009,-0.45658 0.12831,-0.53999 0.59646,-0.41756 0.48909,0.1279 1.21957,-0.51201 4.45582,-3.90332 l 3.87082,-4.0563 -2.89131,-4.65427 c -1.59022,-2.55984 -3.0579,-4.91542 -3.2615,-5.23462 l -0.37019,-0.58037 -4.957203,1.71946 c -2.726461,0.9457 -4.997166,1.75943 -5.046013,1.80827 -0.04885,0.0489 -0.722863,2.1913 -1.497817,4.76101 -0.774954,2.56972 -1.465456,4.72865 -1.534446,4.79764 -0.06899,0.069 -1.541444,0.2485 -3.272115,0.3989 -4.7293,0.41099 -4.337306,0.19128 -4.337264,2.43101 l 4e-5,1.91319 -2.209499,-0.0917 c -1.841203,-0.0764 -2.390989,9.3e-4 -3.298322,0.4638 -1.045853,0.53356 -2.429756,2.16496 -2.429756,2.86429 0,0.38479 -0.44097,0.45655 -0.573265,0.0933 -0.04851,-0.13319 -0.782222,-0.96766 -1.630479,-1.85438 l -1.542285,-1.61222 -2.811748,2.64813 c -1.546461,1.45648 -2.90626,2.64814 -3.021777,2.64814 -0.182475,0 -0.305507,-3.5781 -0.334053,-9.71507 l -0.0083,-1.77757 1.113277,-0.22016 1.113277,-0.22016 -0.143367,-1.77258 c -0.189946,-2.3477 -0.193158,-2.3546 -1.199631,-2.57566 -2.591837,-0.56926 -7.550808,-3.23064 -10.508442,-5.63966 l -1.44616,-1.17792 -0.656259,0.76762 c -0.360958,0.42219 -1.231818,1.42246 -1.93526,2.22282 l -1.278986,1.45521 -0.0038,-0.99219 c -0.0021,-0.5457 -0.116274,-0.99218 -0.253812,-0.99218 -0.631227,0 -7.536215,1.08351 -7.653701,1.20099 -0.07286,0.0729 -0.556736,1.16408 -1.075285,2.42495 l -0.942805,2.29247 -1.703491,0.69122 c -1.672646,0.67871 -1.779107,0.78442 -5.879601,5.83819 l -4.176111,5.14697 -0.0074,2.80017 c -0.0041,1.5401 0.04953,2.85708 0.119082,2.92664 0.06955,0.0695 2.06385,-0.14476 4.431771,-0.47624 2.367921,-0.33148 4.51367,-0.60667 4.768331,-0.61153 0.965612,-0.0184 0.526136,1.56083 -1.414259,5.08214 -1.819153,3.301293 -1.894934,3.395083 -2.447396,3.028933 -0.313564,-0.20782 -0.629647,-0.66129 -0.702408,-1.00773 -0.07276,-0.346433 -0.26103,-0.847083 -0.418378,-1.112543 -0.269352,-0.45441 -0.571178,-0.39464 -5.159375,1.02164 -2.680309,0.827363 -4.900311,1.527993 -4.933338,1.556943 -0.03303,0.029 0.490473,2.21836 1.163336,4.86534 l 1.223386,4.8127 h 1.003862 c 0.552123,0 1.077446,-0.11907 1.167382,-0.26459 0.08994,-0.14552 0.336305,-0.26458 0.547485,-0.26458 0.264544,0 0.08057,0.45693 -0.591513,1.46917 l -0.975475,1.46917 2.361835,2.37807 c 1.586704,1.5976 2.510894,2.34 2.81602,2.26207 0.284821,-0.0727 0.630139,0.15324 0.926041,0.60599 l 0.471857,0.72199 8.863542,-4.03956 c 4.874948,-2.22176 9.042135,-4.04693 9.260416,-4.05594 0.218281,-0.009 3.671094,1.276 7.672917,2.85555 7.097117,2.80129 7.290567,2.89724 7.866739,3.90218 0.324885,0.56665 0.632098,1.14824 0.682699,1.29243 0.0506,0.14418 2.523223,-0.91868 5.494719,-2.36192 2.971495,-1.44325 5.582912,-2.61254 5.803148,-2.59843 0.380413,0.0244 7.872492,1.78971 8.743572,2.06022 0.291989,0.0907 0.699029,-0.38688 1.391187,-1.63218 l 0.978432,-1.76036 -0.795875,-2.86738 c -0.437729,-1.57706 -0.795872,-2.9884 -0.795872,-3.13631 0,-0.14791 0.565547,-0.2685 1.256771,-0.26797 l 1.256771,0.001 0.900898,2.29313 0.900898,2.29313 -0.703823,0.56121 -0.703826,0.56121 0.766326,2.10564 0.766328,2.10564 1.947016,0.16386 c 1.070859,0.0901 2.912909,0.17941 4.093437,0.19843 1.18054,0.019 3.607933,0.33224 5.394203,0.69604 1.78627,0.3638 3.39884,0.66146 3.58349,0.66146 0.50555,0 0.16143,-0.94251 -0.3588,-0.98272 -0.24561,-0.019 -1.77742,-0.34142 -3.40401,-0.71652 -1.6266,-0.37511 -3.65066,-0.68263 -4.497923,-0.68338 -0.84726,-7.9e-4 -2.684769,-0.0772 -4.083364,-0.16978 l -2.5429,-0.16841 -0.301371,-1.30561 c -0.404791,-1.75366 -0.41125,-1.72823 0.489344,-1.92604 0.434896,-0.0955 0.854387,-0.27669 0.932204,-0.4026 0.07782,-0.12591 -0.543499,-1.60503 -1.380704,-3.28693 l -1.522193,-3.05811 h -2.055844 c -1.187278,0 -2.055845,0.11122 -2.055845,0.26326 0,0.14479 0.425734,1.88156 0.946071,3.85948 l 0.946073,3.59622 -0.69742,1.00637 c -0.447776,0.64615 -0.857454,0.96923 -1.144508,0.90258 -0.245899,-0.0571 -2.167245,-0.52032 -4.269656,-1.0294 -2.10241,-0.50907 -3.988855,-0.92559 -4.192097,-0.92559 -0.203245,0 -2.685873,1.08557 -5.516952,2.41239 -2.831078,1.32682 -5.224118,2.33569 -5.317868,2.24194 -0.09375,-0.0937 -0.428223,-0.61378 -0.743275,-1.15562 l -0.572823,-0.98517 1.536792,-1.5875 1.53679,-1.5875 0.402664,-3.28711 c 0.237506,-1.93885 0.541354,-3.38701 0.740791,-3.53068 0.245094,-0.17657 0.2159,-0.20459 -0.106106,-0.10185 -0.244326,0.078 -0.857522,0.21927 -1.362659,0.31404 -0.863476,0.16198 -0.929183,0.12333 -1.098145,-0.64595 -0.100238,-0.45638 -0.349608,-0.81824 -0.563873,-0.81824 -0.211285,0 -0.444039,-0.15606 -0.517231,-0.34679 -0.161721,-0.42144 1.671614,-5.263073 2.096312,-5.536143 0.63953,-0.41119 1.381308,-0.1533 3.617561,1.257733 2.592504,1.63581 3.079152,2.38224 1.835764,2.81568 -0.680538,0.23724 -0.746051,0.35697 -0.604052,1.10395 0.0876,0.46083 0.178633,0.8644 0.202292,0.89684 0.02365,0.0324 0.499277,-0.067 1.056929,-0.22098 0.793684,-0.21915 1.066776,-0.20323 1.257313,0.0733 0.133874,0.19429 0.194776,1.73263 0.135337,3.41852 l -0.108069,3.06525 0.642406,-0.28713 c 0.563128,-0.25169 0.626308,-0.41772 0.511968,-1.34546 -0.07174,-0.58208 -0.397557,-3.80384 -0.72404,-7.15947 l -0.593606,-6.101133 2.333752,-3.10703 c 2.09327,-2.78687 2.375406,-3.06538 2.737964,-2.70282 0.362559,0.36256 0.575143,0.1118 2.063038,-2.4335 1.473944,-2.52143 1.601058,-2.84714 1.140489,-2.92226 -0.42214,-0.0689 -0.518342,-0.2977 -0.518342,-1.23302 v -1.14847 l 2.315104,-0.16455 c 1.273307,-0.0905 2.955973,-0.25002 3.739253,-0.35448 l 1.424149,-0.18993 1.697061,-4.7625 1.697061,-4.7625 4.099301,-1.68712 c 2.254633,-0.92792 4.141753,-1.64229 4.193623,-1.5875 0.0519,0.0548 1.35233,2.16984 2.88991,4.70011 l 2.7956,4.60049 -3.34637,3.73388 c -1.8405,2.05364 -3.38099,3.78062 -3.42331,3.83774 -0.0423,0.0571 -0.26344,-0.051 -0.49141,-0.24014 -0.24382,-0.20236 -0.50345,-0.24512 -0.63056,-0.10385 -0.4086,0.4541 -0.81983,3.3748 -0.81983,5.82268 0,2.27065 -0.0417,2.46482 -0.564713,2.63082 -0.52535,0.16674 -0.55314,0.30168 -0.39875,1.93606 0.0913,0.96625 0.1668,2.15424 0.16783,2.63998 l 0.002,0.88315 1.087213,-0.18368 1.08722,-0.18369 -0.0972,1.222543 c -0.0596,0.74942 0.006,1.18392 0.16955,1.12277 1.24726,-0.46636 1.42537,-0.4253 2.81343,0.64856 0.78217,0.6051 2.46135,2.12142 3.73152,3.36959 l 2.30941,2.2694 0.79944,-0.76592 c 0.43973,-0.42125 0.79948,-0.98177 0.79948,-1.24558 0,-0.26382 0.11906,-0.47967 0.26458,-0.47967 0.14552,0 0.26459,0.47625 0.26459,1.05834 0,0.58208 -0.0893,1.05833 -0.19856,1.05833 -0.1092,0 -0.70578,0.46365 -1.32573,1.03034 l -1.12718,1.03034 -0.52635,-0.66915 -0.52635,-0.66915 -0.0313,0.76329 c -0.0317,0.77307 -0.0182,0.87554 0.24058,1.82162 0.0796,0.29104 -0.82416,-0.48286 -2.00838,-1.71979 -1.47109,-1.53655 -2.15575,-2.09503 -2.16138,-1.76304 -0.005,0.26726 0.72548,1.25002 1.62226,2.18392 0.89677,0.93389 1.5718,1.75668 1.50006,1.82842 -0.26573,0.26572 -5.14884,-3.64014 -6.09488,-4.87512 -1.04452,-1.36353 -1.04192,-1.60751 0.0171,-1.60751 0.65455,0 0.64971,-0.0141 -0.22779,-0.66146 -0.49311,-0.36381 -0.96787,-0.66146 -1.05502,-0.66146 -0.0872,0 -0.27239,0.38695 -0.41162,0.85989 -0.19719,0.6698 -0.417543,0.87875 -0.996763,0.94516 -1.05144,0.12056 -1.541813,-0.35177 -1.22643,-1.18131 0.39396,-1.03618 0.2942,-2.08945 -0.244033,-2.57654 -0.470604,-0.4259 -0.488519,-0.41719 -0.374012,0.18181 0.185608,0.97094 -0.536435,1.54259 -1.516764,1.20085 -0.90111,-0.31413 -1.006864,-0.88874 -0.38491,-2.09147 0.42232,-0.81668 0.602292,-2.504683 0.299341,-2.807633 -0.09636,-0.0964 -0.175207,0.12647 -0.175207,0.49519 0,0.48901 -0.286345,0.85989 -1.058333,1.370773 -1.206249,0.79826 -1.331235,1.44034 -0.654013,3.3598 0.550389,1.55996 0.371181,1.97195 -0.632087,1.45314 -0.874638,-0.45229 -1.095158,-0.88355 -1.095158,-2.14173 0,-0.48883 -0.119063,-0.96237 -0.264583,-1.05231 -0.145521,-0.0899 -0.264584,-0.50049 -0.264584,-0.91234 0,-0.41185 -0.234164,-1.029903 -0.520364,-1.373453 l -0.520364,-0.62462 -0.0088,1.757633 c -0.0058,1.15797 -0.12164,1.79912 -0.339532,1.87925 -0.616821,0.22683 -0.992188,-0.1064 -0.992188,-0.88081 8e-6,-0.67753 -0.0949,-0.7717 -0.777769,-0.7717 -0.70744,0 -0.785206,0.0895 -0.859896,0.98999 -0.105118,1.26727 -0.876868,1.53302 -1.128244,0.3885 -0.09273,-0.42219 -0.513731,-1.02279 -0.935553,-1.33466 l -0.766953,-0.56703 0.356158,0.85691 c 0.609394,1.4662 0.612386,2.84129 0.0062,2.84129 -0.292742,0 -0.358386,-0.17344 -0.241654,-0.63853 0.209936,-0.83649 -0.676823,-1.74272 -1.705293,-1.74272 -1.181242,0 -1.483738,-0.58086 -0.690549,-1.32602 0.820018,-0.770373 0.892636,-2.003483 0.132197,-2.244833 -0.295191,-0.0937 -0.628632,-0.53685 -0.759966,-1.01002 -0.361976,-1.30415 -0.696981,-0.17885 -0.35171,1.18141 0.325839,1.28371 0.049,2.221853 -0.728462,2.468613 -0.299376,0.095 -0.544322,0.2838 -0.544322,0.41952 0,0.2885 0.754981,1.04235 1.478426,1.47622 0.407286,0.24426 0.449085,0.39904 0.214344,0.79375 -0.64113,1.07804 -2.253821,0.63846 -2.853666,-0.77784 l -0.359368,-0.84851 -0.194593,0.72761 c -0.214148,0.80072 -0.400431,0.88773 -0.878059,0.4101 -0.410525,-0.41052 -0.406781,-0.20827 0.07937,4.28625 0.483703,4.47186 0.489148,4.23333 -0.09661,4.23333 -0.271418,0 -0.81347,0.2517 -1.204558,0.55933 -0.391091,0.30764 -0.779619,0.49079 -0.863394,0.40702 -0.08378,-0.0838 -0.01796,-0.68586 0.146225,-1.33796 0.1642,-0.65209 0.298545,-2.26626 0.298545,-3.58705 v -2.40142 l -0.727604,0.17855 c -0.400182,0.0982 -1.620573,0.43249 -2.711979,0.74287 l -1.984375,0.56434 -0.344112,3.16476 -0.344109,3.16477 -1.493713,1.51532 -1.493711,1.51531 0.44391,0.93089 0.443913,0.93089 1.39391,-0.62792 c 0.766651,-0.34536 3.117611,-1.43274 5.224353,-2.4164 l 3.830442,-1.78847 4.447199,1.05615 4.447201,1.05615 0.538393,-0.7561 0.53839,-0.7561 -0.944679,-3.66597 c -0.519573,-2.01628 -0.944679,-3.86136 -0.944679,-4.10017 0,-0.37178 0.357894,-0.4342 2.489642,-0.4342 h 2.489641 l 1.647124,3.42239 c 0.905918,1.88231 1.629265,3.51942 1.607437,3.63802 -0.02183,0.1186 -0.42486,0.34719 -0.89562,0.50797 -0.769006,0.26266 -0.847027,0.38357 -0.768237,1.19063 0.04823,0.49405 0.194893,1.00922 0.325914,1.14482 0.131019,0.13559 2.17515,0.33456 4.542512,0.44215 2.900715,0.13182 4.994525,0.37203 6.420965,0.73661 2.99604,0.76576 3.30729,0.74244 3.30729,-0.24781 0,-0.8941 0.66299,-2.36812 1.06513,-2.36812 0.14179,0 0.25779,0.24563 0.25779,0.54583 0,1.02605 1.45381,3.54799 2.77813,4.81923 l 1.32291,1.26992 0.16714,-0.7378 c 0.0919,-0.40579 0.18122,-1.30335 0.19843,-1.99457 z m -2.16012,-0.50814 c -1.69481,-2.86491 -1.88201,-5.38895 -0.51682,-6.96861 0.59343,-0.68667 1.921,-1.71752 2.21188,-1.71752 0.1243,0 0.16805,1.0418 0.0972,2.31511 -0.0708,1.2733 -0.20007,3.59502 -0.28716,5.15937 -0.0871,1.56435 -0.24407,2.84427 -0.34883,2.84427 -0.10475,0 -0.62508,-0.73468 -1.15628,-1.63262 z m -78.50191,0.71514 c -0.259695,-0.48524 -0.502541,-0.62153 -0.920567,-0.51661 -0.45407,0.11397 -0.944414,-0.27456 -2.447765,-1.9395 l -1.879948,-2.08201 0.885956,-1.43634 c 0.818244,-1.32657 0.853721,-1.47197 0.464177,-1.90241 -0.516478,-0.5707 -1.025749,-0.59937 -1.229197,-0.0692 -0.08554,0.22292 -0.479254,0.39687 -0.898243,0.39687 -0.740693,0 -0.753183,-0.0284 -1.773146,-4.03489 -0.56496,-2.21919 -1.072595,-4.16652 -1.128079,-4.3274 -0.118339,-0.34313 8.550195,-2.847843 8.966214,-2.590733 0.149305,0.0923 0.222785,0.49944 0.163289,0.904813 -0.09132,0.62219 0.02982,0.80285 0.777295,1.1593 0.487008,0.23224 0.929839,0.42225 0.984069,0.42225 0.05423,0 1.121753,-1.58672 2.372273,-3.526053 2.123513,-3.29317 2.273675,-3.61839 2.273675,-4.92423 v -1.3982 l -0.859896,0.14319 c -1.904689,0.31717 -8.675629,1.05092 -8.765537,0.94991 -0.05295,-0.0595 -0.1742,-1.06066 -0.269453,-2.22483 l -0.173187,-2.11667 4.267156,-5.21268 c 4.260367,-5.20439 4.269987,-5.21379 6.04689,-5.91093 l 1.779735,-0.69826 0.976815,-2.30685 0.976816,-2.30685 2.838975,-0.44996 c 1.561439,-0.24747 2.987805,-0.44876 3.169706,-0.44731 0.214643,0.002 0.330729,0.41593 0.330729,1.18011 0,0.83201 0.131654,1.25116 0.448718,1.4286 0.343781,0.19239 0.553,1.04624 0.894643,3.65116 0.245258,1.87003 0.354934,3.51912 0.243724,3.66464 -0.11121,0.14552 -0.143097,0.65154 -0.07086,1.12448 0.139899,0.91593 0.366671,0.99926 1.89029,0.69453 l 0.826823,-0.16536 v -2.21309 c 0,-2.19727 -0.01069,-2.23222 -1.493684,-4.88726 l -1.493685,-2.67416 1.968006,-1.96801 1.968005,-1.968 1.443908,1.34026 c 2.843699,2.63957 5.826643,4.23897 9.009951,4.83097 l 1.562082,0.2905 v 1.52483 1.52483 l -0.990611,0.0821 -0.990608,0.0821 0.07013,5.02708 c 0.03857,2.76489 0.142335,5.90297 0.230587,6.97351 l 0.160454,1.94643 3.002262,-2.99375 3.002264,-2.99375 1.841264,1.97336 c 2.06076,2.20861 2.010283,1.96792 1.218414,5.80982 -0.194958,0.94589 -0.435115,2.45606 -0.533678,3.35593 l -0.179207,1.63614 -1.670262,-1.02231 c -0.918641,-0.56228 -1.744043,-0.94853 -1.834221,-0.85836 -0.09018,0.0902 -0.34657,-0.0967 -0.569754,-0.41538 -0.482555,-0.68894 -1.049549,-0.74677 -1.388221,-0.1416 -0.315875,0.56444 -1.043503,0.29534 -1.346671,-0.49803 -0.22402,-0.58625 -0.234759,-0.58181 -0.432366,0.17887 -0.154064,0.59307 -0.05519,1.03703 0.412477,1.85209 0.435957,0.75979 0.486678,0.96626 0.174139,0.7089 -0.400355,-0.32967 -0.440979,-0.25045 -0.440979,0.859903 0,0.67266 -0.0893,1.20412 -0.198437,1.18101 -0.109141,-0.0231 -0.39674,0.0453 -0.639109,0.15203 -0.242369,0.10671 -0.77815,0.15538 -1.190625,0.10815 -0.596165,-0.0683 -0.767181,-0.2357 -0.833967,-0.81651 -0.04621,-0.40185 0.08126,-1.06195 0.283271,-1.466873 0.275688,-0.55263 0.329631,-1.42041 0.216305,-3.47964 l -0.150979,-2.7434 -1.036609,1.89484 c -0.570134,1.04216 -1.084929,1.84652 -1.143989,1.78746 -0.05906,-0.0591 0.07999,-0.46971 0.309004,-0.91257 0.582242,-1.12594 0.520951,-1.59857 -0.245073,-1.88981 -0.433729,-0.16491 -0.661458,-0.45545 -0.661458,-0.8439 0,-0.55814 -0.02609,-0.56632 -0.450898,-0.14152 -0.424807,0.42481 -0.41715,0.52036 0.132292,1.65128 0.594489,1.22363 0.857258,3.13946 0.299228,2.18165 -0.147328,-0.25287 -0.478147,-0.57231 -0.735158,-0.70986 -0.427453,-0.22877 -0.457605,-0.11621 -0.353695,1.32033 0.134453,1.8588 -0.170257,2.362853 -1.428398,2.362853 -1.46847,0 -1.843943,-1.310273 -0.896409,-3.128163 0.667811,-1.28122 0.470998,-1.89892 -0.605038,-1.89892 h -0.806461 l 0.173006,3.60739 0.173008,3.607393 1.603542,2.2418 c 0.881946,1.23299 1.566693,2.27279 1.521656,2.31067 -0.04504,0.0379 -1.85419,-0.33578 -4.020339,-0.83035 -2.166151,-0.49458 -3.968768,-0.86575 -4.005812,-0.82484 -0.03705,0.0409 -0.11021,1.20549 -0.162587,2.58794 l -0.09523,2.51354 6.934727,2.75815 c 3.814098,1.51699 6.988624,2.89862 7.0545,3.07029 0.06588,0.17167 -2.995218,-0.92796 -6.802435,-2.44364 -3.807213,-1.51567 -7.160333,-2.75838 -7.451375,-2.76157 -0.291042,-0.003 -4.339167,1.67183 -8.995833,3.72229 -4.656667,2.05045 -8.654158,3.78817 -8.883313,3.86159 -0.259689,0.0832 -0.549534,-0.11482 -0.769398,-0.52564 z m 9.652711,-3.85169 c 4.802187,-2.08722 8.75693,-3.80861 8.788318,-3.82533 0.03139,-0.0167 0.139665,-1.20544 0.240617,-2.64161 0.15404,-2.19141 0.123515,-2.58817 -0.189884,-2.46791 -1.062802,0.40784 -9.019184,2.63188 -9.10574,2.54532 -0.05557,-0.0556 0.967574,-2.07845 2.273656,-4.49528 2.162466,-4.001523 2.346982,-4.455083 2.064563,-5.074923 -0.253326,-0.55599 -0.230563,-0.80211 0.124272,-1.34366 0.238924,-0.36464 0.434406,-1.03219 0.434406,-1.48344 0,-0.45125 0.123251,-1.05075 0.273891,-1.33222 0.228354,-0.42668 0.18591,-0.51178 -0.255272,-0.51178 -0.63894,0 -1.076952,0.73985 -1.076952,1.81908 0,0.90005 -0.275424,1.1721 -0.931686,0.92027 -0.465465,-0.17861 -0.465653,-0.13789 0.01453,-3.13622 l 0.169495,-1.05834 -0.777232,1.32292 c -1.225107,2.08523 -1.263658,2.59688 -0.339974,4.51208 0.902219,1.87069 0.970783,2.298273 0.439267,2.739393 -0.559906,0.46468 -1.749396,-0.16242 -1.749396,-0.922303 0,-0.7718 -0.257512,-1.43438 -0.557474,-1.43438 -0.129952,0 -0.236276,0.1786 -0.236276,0.39688 0,0.21828 -0.178594,0.39687 -0.396875,0.39687 -0.314533,0 -0.396875,-0.37977 -0.396875,-1.83044 0,-2.0663 -0.155958,-2.66747 -0.692008,-2.66747 -0.286139,0 -0.305251,0.10572 -0.0837,0.46302 0.49312,0.79524 -0.10248,1.86732 -1.092575,1.96662 -0.643047,0.0645 -0.966722,0.30921 -1.399338,1.05799 l -0.562793,0.97409 0.592289,0.63046 c 0.696803,0.741713 0.751059,1.325833 0.176515,1.900383 -0.663667,0.66366 -1.255449,0.53103 -1.106527,-0.248 0.09995,-0.52288 0.05371,-0.60304 -0.217855,-0.37766 -0.189609,0.15736 -0.381656,0.53734 -0.426773,0.84439 -0.141557,0.96342 -1.410771,1.08436 -2.833887,0.27003 -0.669291,-0.38298 -1.256305,-0.72448 -1.304475,-0.75888 -0.04817,-0.0344 0.04145,-0.30364 0.199153,-0.59831 0.157705,-0.29467 0.187776,-0.59693 0.06683,-0.67168 -0.155407,-0.0961 -7.768496,1.83318 -8.152586,2.06594 -0.09565,0.058 2.00843,7.90279 2.159843,8.05274 0.09528,0.0944 0.434105,-0.15481 0.752942,-0.55373 l 0.579703,-0.72531 0.984081,0.6687 c 0.541244,0.36779 0.98408,0.79178 0.98408,0.94222 0,0.15043 -0.357188,0.79267 -0.79375,1.42719 -0.436563,0.63452 -0.79375,1.2767 -0.79375,1.42706 0,0.15036 0.727149,1.0507 1.615887,2.00076 1.288419,1.37733 1.734081,1.69773 2.199119,1.58101 0.447389,-0.11229 0.656728,0.0149 0.89878,0.54617 0.173551,0.3809 0.404338,0.64523 0.51286,0.58739 0.108522,-0.0578 4.126374,-1.81289 8.928562,-3.9001 z m 6.746875,-8.73016 c 0,-0.0933 -0.311473,-0.33628 -0.692164,-0.54002 -0.770051,-0.41212 -0.760685,0.10843 -0.101338,-5.632563 0.164629,-1.43346 0.245356,-2.66026 0.179393,-2.72623 -0.104685,-0.10468 -6.000475,10.540583 -6.000475,10.834283 0,0.0618 1.488282,-0.31025 3.307292,-0.82677 1.81901,-0.51651 3.307292,-1.01543 3.307292,-1.1087 z m -3.582056,-2.06363 c 1.838896,-3.560443 2.037704,-3.719703 1.427606,-1.14365 -0.479538,2.02478 -0.488084,2.2488 -0.10206,2.67535 0.393787,0.43513 0.355955,0.47634 -0.579324,0.63091 -2.077487,0.34333 -2.062667,0.38627 -0.746222,-2.16261 z m 12.941225,1.73848 c -0.552558,-0.76398 -1.220502,-1.6902 -1.484318,-2.05825 -0.368694,-0.51438 -0.518456,-1.39307 -0.647345,-3.798113 -0.141266,-2.63597 -0.217392,-3.03603 -0.483209,-2.53934 l -0.315526,0.58956 -0.146907,-0.56177 c -0.08709,-0.33302 -0.359331,-0.56177 -0.668581,-0.56177 -0.499298,0 -0.503753,0.0395 -0.103881,0.92175 0.28244,0.62313 0.484968,0.816 0.625145,0.59531 0.463886,-0.73031 0.143782,0.1449 -1.239756,3.389693 -0.800364,1.87708 -1.455208,3.53717 -1.455208,3.68908 0,0.15191 1.131094,0.52173 2.513541,0.82183 1.382448,0.30009 2.513542,0.4385 2.513542,0.30758 0,-0.13092 0.187098,-0.0509 0.415774,0.17773 0.228674,0.22868 0.655535,0.41578 0.948576,0.41578 0.474097,0 0.422106,-0.15306 -0.471847,-1.38907 z m -3.313943,-0.29201 -1.759985,-0.56788 0.966034,-1.85209 0.966033,-1.85208 0.08543,1.04435 c 0.05459,0.66731 0.382815,1.43149 0.90914,2.11667 0.453041,0.58977 0.935284,1.22114 1.07165,1.40304 0.339926,0.45344 -0.109797,0.39477 -2.238298,-0.29201 z m -3.92856,0.17382 c 0.870085,-0.12421 0.977477,-0.25453 1.777251,-2.15674 1.330979,-3.165653 1.302684,-2.971263 0.406398,-2.792003 -1.070639,0.214123 -1.919065,-0.84264 -1.919065,-2.39031 0,-0.60612 -0.131845,-1.23387 -0.292987,-1.39501 -0.161142,-0.16115 -0.381878,-0.69097 -0.490527,-1.1774 l -0.19754,-0.88441 -0.20964,0.76755 c -0.125685,0.46017 -0.08818,1.10344 0.09365,1.60628 0.570666,1.57815 0.373909,2.46026 -0.671502,3.01052 -0.757193,0.39856 -0.820412,0.38786 -0.938533,-0.15883 -0.05503,-0.25466 -0.254177,0.723433 -0.442563,2.173533 l -0.342516,2.63655 0.75389,0.60489 c 0.414745,0.33277 0.932429,0.53351 1.150766,0.44623 0.218281,-0.0873 0.813593,-0.21814 1.322916,-0.29085 z m 21.925081,-7.775003 c -0.504356,-0.31171 -0.548275,-0.14645 -0.189418,0.71275 0.31468,0.75343 0.32076,0.75532 0.42743,0.13276 0.05951,-0.34734 -0.04759,-0.72782 -0.238012,-0.84551 z m -19.702652,-4.60324 c 0.366625,-1.1545 0.625922,-2.13977 0.576217,-2.18947 -0.0497,-0.0497 -0.402076,-0.0121 -0.78305,0.0835 -0.675494,0.16954 -0.692679,0.22675 -0.692679,2.30593 0,1.17265 0.05241,2.07968 0.116462,2.01562 0.06406,-0.0641 0.416427,-1.06105 0.78305,-2.21556 z m 1.655278,-0.48212 c -0.354602,-0.66692 -0.717309,-1.14 -0.806011,-1.0513 -0.376695,0.37669 -0.110048,1.40018 0.566325,2.17375 0.960768,1.09883 1.09257,0.4816 0.239686,-1.12245 z m -13.266338,0.10976 c -0.122005,-0.88709 -0.06808,-1.46908 0.171679,-1.853 0.400843,-0.64186 0.158882,-1.1972 -0.798608,-1.83295 -0.58401,-0.38777 -0.588318,-0.38243 -0.264737,0.32775 0.256107,0.56209 0.258974,0.83396 0.01295,1.2279 -0.453738,0.72655 -0.391907,1.23098 0.226715,1.84961 0.350361,0.35036 0.4847,0.72544 0.379046,1.05833 -0.09809,0.30905 -0.04056,0.51563 0.143586,0.51563 0.215621,0 0.254199,-0.38566 0.129369,-1.29327 z m -3.226702,-7.08379 c 0.428434,-0.12191 0.461315,-0.33137 0.298148,-1.89925 -0.100865,-0.96922 -0.2099,-1.79348 -0.242298,-1.83167 -0.0324,-0.0382 -1.059534,0.88883 -2.282524,2.06004 l -2.223617,2.12948 1.984375,-0.16079 c 1.091406,-0.0884 2.201068,-0.22245 2.465916,-0.29781 z m -2.201333,-0.46846 c 0,-0.0628 0.357187,-0.36862 0.79375,-0.67948 l 0.79375,-0.5652 v 0.67948 c 0,0.57858 -0.11786,0.67947 -0.79375,0.67947 -0.436563,0 -0.79375,-0.0514 -0.79375,-0.11427 z M 68.633787,111.7472 c 0,-0.3638 0.06005,-0.51263 0.133453,-0.33073 0.0734,0.1819 0.0734,0.47956 0,0.66146 -0.0734,0.1819 -0.133453,0.0331 -0.133453,-0.33073 z m 0.264583,-2.11666 c 0,-0.36381 0.06005,-0.51263 0.133453,-0.33073 0.0734,0.1819 0.0734,0.47955 0,0.66145 -0.0734,0.18191 -0.133453,0.0331 -0.133453,-0.33072 z m -2.207823,-1.38907 c -0.05531,-0.57364 -0.206955,-0.83323 -0.455539,-0.77978 -0.543361,0.11682 -0.808447,-0.47305 -0.508465,-1.13143 0.393059,-0.86268 1.747453,-0.60646 1.858393,0.35156 0.06722,0.58049 0.216318,0.70139 0.874784,0.70932 0.724771,0.009 0.831683,0.1421 0.701146,0.8746 -0.03352,0.18807 -1.766602,0.83563 -2.236433,0.83563 -0.08304,0 -0.188285,-0.38695 -0.233886,-0.8599 z m 8.449902,-7.37102 c -0.402719,-0.22792 -0.458877,-0.66521 -0.431215,-3.357753 l 0.03181,-3.09571 0.49951,2.91042 c 0.583197,3.398023 0.568412,3.921373 -0.1001,3.543043 z m 0.975794,-6.712373 c -0.320876,-1.71042 -0.01746,-4.55171 0.570079,-5.33867 0.979403,-1.31181 1.793439,-1.72603 3.691393,-1.87838 1.607256,-0.12902 1.777243,-0.0974 1.624097,0.30164 -0.207873,0.54171 -5.168508,7.51574 -5.485154,7.71144 -0.123745,0.0765 -0.303932,-0.28174 -0.400415,-0.79603 z m 2.589686,-5.16405 c 0.476459,-0.2905 1.110369,-0.52863 1.408687,-0.52917 0.546338,-10e-4 1.177396,-0.45532 1.177396,-0.84766 0,-0.38874 -1.972789,-0.21677 -2.888136,0.25177 -0.497071,0.25443 -1.077138,0.7305 -1.289043,1.05792 -0.356354,0.55061 -0.343606,0.59531 0.169762,0.59531 0.305274,0 0.944875,-0.23768 1.421334,-0.52817 z m -27.12259,-6.59676 c -0.05275,-0.22863 0.06867,-0.61138 0.26983,-0.85056 0.311854,-0.3708 0.304977,-0.75521 -0.04666,-2.60892 -0.560758,-2.95607 -0.522107,-3.03562 0.513633,-1.05725 0.704522,1.34571 0.903158,2.04418 0.913204,3.21111 0.01252,1.45397 -0.0068,1.49421 -0.770628,1.60632 -0.560279,0.0822 -0.810786,-0.003 -0.879374,-0.3007 z m 71.688331,-4.186 c -0.0662,-0.10914 -0.19929,-1.27 -0.29579,-2.57969 -0.0965,-1.30969 -0.23744,-2.70867 -0.31319,-3.10886 -0.13716,-0.72461 -0.13153,-0.7276 1.36719,-0.7276 1.4255,0 1.49757,0.0314 1.36574,0.59531 -0.0765,0.32743 -0.3483,1.81571 -0.60391,3.30729 -0.38402,2.24099 -0.54592,2.71198 -0.93222,2.71198 -0.25712,0 -0.52164,-0.0893 -0.58782,-0.19843 z M 73.028529,118.9571 c 0.772589,-1.1158 0.905084,-1.38921 0.672328,-1.38739 -0.117729,7.9e-4 -0.416478,0.35742 -0.663888,0.79221 -0.401756,0.70605 -0.524311,0.76223 -1.146683,0.5256 -1.002575,-0.38117 -1.476959,0.0267 -0.510481,0.43889 1.069774,0.45627 1.07842,0.45434 1.648724,-0.36931 z m 44.605321,-3.4351 0.75537,1.26125 3.41591,-1.79042 c 3.22156,-1.68855 3.40752,-1.82924 3.26842,-2.47284 -0.12887,-0.59629 -0.0125,-0.74327 0.92195,-1.16466 l 1.06943,-0.48224 v -3.94419 c 0,-3.08028 -0.0724,-3.90257 -0.33073,-3.75419 -0.1819,0.10449 -0.90187,0.60201 -1.59993,1.10561 -0.69807,0.50359 -1.3106,0.87161 -1.36119,0.81782 -0.26744,-0.28439 -0.9321,-4.45037 -0.779,-4.88269 0.0987,-0.278733 0.64806,-1.139673 1.22078,-1.913183 0.57271,-0.77352 0.97783,-1.57181 0.90024,-1.77399 -0.0776,-0.20217 -0.62311,-0.61351 -1.21228,-0.91408 -1.18836,-0.60626 -1.1849,-0.60009 -0.7917,-1.41304 0.26018,-0.53792 0.24154,-0.53429 -0.2692,0.0524 l -0.54873,0.63033 0.6794,1.15932 c 0.75021,1.28013 0.68131,1.68107 -0.2889,1.68107 -0.47807,0 -0.64584,-0.1432 -0.64584,-0.55122 0,-0.60531 -0.47786,-0.57446 -0.8759,0.0566 -0.17292,0.27414 -0.10409,0.7121 0.2189,1.39275 0.45577,0.96044 0.45475,1.00859 -0.0312,1.474943 -0.87179,0.83657 -1.61487,0.90417 -2.30898,0.21006 -0.45689,-0.456893 -0.73279,-0.556643 -1.02677,-0.371203 -0.2211,0.139473 -0.59678,0.178843 -0.83484,0.0875 -0.61828,-0.237253 -0.54932,-1.260113 0.0963,-1.428953 0.72896,-0.19063 0.6664,-0.60583 -0.0913,-0.60583 -0.79366,0 -1.42768,0.70794 -1.54022,1.71979 -0.076,0.683053 -0.18976,0.786803 -0.81589,0.743943 -0.40018,-0.0274 -0.7262,0.0321 -0.72447,0.13229 0.002,0.10016 0.29937,1.37245 0.66146,2.82732 0.36208,1.45487 0.65832,2.67526 0.65832,2.71198 0,0.0367 -0.28333,0.0668 -0.62963,0.0668 -0.62098,0 -0.63206,0.0464 -0.80601,3.37344 -0.097,1.85539 -0.24268,3.87132 -0.32374,4.47985 l -0.14737,1.10642 1.54869,0.78533 1.54869,0.78532 0.13229,-1.23028 0.13229,-1.23029 z m 31.43956,-2.05501 c 1.223,-1.4552 2.3065,-2.78115 2.40776,-2.94653 0.15576,-0.25438 -1.42258,-1.57822 -5.36808,-4.50254 -0.34641,-0.25675 -0.4106,-0.1936 -0.40349,0.39687 0.007,0.62227 -0.1045,0.71155 -0.98373,0.78432 -0.54571,0.0452 -0.99219,-0.0179 -0.99219,-0.14019 0,-0.35043 0.77368,-6.73307 0.92304,-7.614843 0.12206,-0.72057 0.0674,-0.79457 -0.59273,-0.80261 -0.39995,-0.005 -0.81218,0.1142 -0.91606,0.26459 -0.29278,0.42387 -0.98547,-0.41839 -1.08723,-1.32201 -0.0487,-0.43219 -0.16144,-0.9644 -0.2506,-1.18268 -0.0892,-0.21828 -0.20405,-0.635 -0.25532,-0.92604 l -0.0932,-0.52917 -0.29141,0.52917 c -0.20931,0.38008 -0.21249,0.93915 -0.0113,1.98437 0.15408,0.80037 0.29042,2.01103 0.30299,2.690373 0.0163,0.88309 0.18755,1.41102 0.60068,1.85209 l 0.57785,0.61692 -0.51696,2.24896 c -0.5881,2.55841 -0.73647,3.03316 -0.89758,2.87205 -0.0627,-0.0628 0.1166,-1.00253 0.39857,-2.08839 0.28197,-1.08586 0.51471,-2.22612 0.5172,-2.53392 0.006,-0.7625 -0.93356,-1.8999 -1.65438,-2.00235 -0.38264,-0.0544 -0.68304,-0.36286 -0.85462,-0.8776 -0.46728,-1.401833 -0.6461,-1.529873 -1.20895,-0.865593 l -0.50923,0.601 -0.68417,-0.76782 c -0.5447,-0.6113 -0.65169,-0.94092 -0.52486,-1.617 0.11415,-0.60844 0.0372,-0.9505 -0.27131,-1.20657 -0.36816,-0.30554 -0.48404,-0.28433 -0.79886,0.14622 -0.51054,0.6982 -0.46038,1.56587 0.16092,2.78372 0.68575,1.344183 0.66728,1.926583 -0.089,2.805763 -0.8572,0.99656 -1.34336,0.64262 -1.14138,-0.83096 0.10925,-0.79707 0.0466,-1.22037 -0.21259,-1.435443 -0.29777,-0.24713 -0.34053,-0.20181 -0.22531,0.238803 0.21064,0.80549 -0.59182,1.86767 -1.411,1.86767 -0.66505,0 -0.67308,0.0194 -0.26535,0.64167 0.33527,0.5117 0.36299,0.80646 0.13684,1.45521 -0.15598,0.44745 -0.42708,0.81354 -0.60244,0.81354 -0.17537,0 -1.29481,-0.47197 -2.48766,-1.04882 l -2.16882,-1.04881 v 3.92988 3.92989 l 5.19089,2.87109 c 3.62931,2.00737 5.4003,2.84701 5.88698,2.79109 0.38285,-0.044 2.07854,-0.31075 3.76819,-0.59278 4.04627,-0.6754 3.93936,-0.68456 3.93936,0.33765 0,1.0092 -0.18458,1.16956 2.95848,-2.57024 z m -43.51782,-4.04446 c -0.38844,-0.40545 -0.78361,-1.14959 -0.87815,-1.65365 -0.24931,-1.32922 -1.31414,-2.37168 -2.4226,-2.37168 -0.49423,0 -0.8589,0.0893 -0.81039,0.19844 0.4055,0.91239 1.61634,2.25499 2.96783,3.29079 1.88199,1.44238 2.1173,1.55272 1.14331,0.5361 z m 5.15347,-4.25059 c -0.0961,-1.25585 -0.10988,-1.25144 2.18966,-0.7024 0.86707,0.20702 1.62183,0.33107 1.67724,0.27566 0.0554,-0.0554 -0.0897,-1.02156 -0.32243,-2.14701 -0.23275,-1.12545 -0.36662,-2.10283 -0.29749,-2.17196 0.0691,-0.0691 0.008,-0.34606 -0.1364,-0.615413 -0.19771,-0.36942 -0.0936,-0.8223 0.42397,-1.8436 0.79996,-1.57865 0.70272,-1.97676 -0.18611,-0.762 -0.34024,0.46499 -1.02822,1.12581 -1.52886,1.46849 -0.51107,0.34981 -1.03321,1.00202 -1.19063,1.487233 -0.29384,0.90571 -0.82022,1.15722 -1.8703,0.89367 -1.49777,-0.37592 -1.75391,-1.704783 -0.57819,-2.999593 0.52863,-0.58217 0.52916,-0.59532 0.0242,-0.59532 -0.78541,0 -1.70604,0.76154 -2.12087,1.75437 -0.49697,1.189433 -1.08719,1.185483 -0.94805,-0.006 l 0.10481,-0.8978 -1.48086,0.41218 c -1.0279,0.28611 -1.48086,0.54479 -1.48086,0.84572 0,0.23845 0.74414,0.956413 1.65364,1.595463 0.90951,0.63906 2.54662,2.08143 3.63802,3.20529 1.09141,1.12385 2.10344,2.01134 2.24896,1.9722 0.14552,-0.0391 0.22678,-0.56512 0.18059,-1.16883 z m -39.603507,0.14332 2.116667,-0.59512 0.08114,-0.96795 c 0.06294,-0.75082 0.206666,-0.98647 0.640734,-1.05053 0.307779,-0.0454 0.598477,-0.20164 0.645993,-0.34717 0.133189,-0.40788 -4.316386,-3.093673 -4.962604,-2.995453 -0.428305,0.0651 -0.770491,0.60897 -1.458963,2.318933 -1.054026,2.61788 -1.060013,2.6609 -0.370255,2.6609 0.411575,0 0.529167,0.17639 0.529167,0.79375 0,0.94721 0.04766,0.95035 2.778124,0.18264 z m 54.590397,-1.78062 1.51558,-1.06882 2.28079,1.06882 c 1.25444,0.58785 2.35549,1.06881 2.44679,1.06881 0.0913,0 0.28161,-0.30407 0.42291,-0.67571 0.22988,-0.60463 0.0413,-0.95952 -1.79249,-3.37344 l -2.04939,-2.697723 -0.13229,-2.08578 -0.13229,-2.08577 -2.54473,3.61141 -2.54473,3.611413 0.22587,1.25249 c 0.33264,1.84447 0.49148,2.44311 0.64822,2.44311 0.0771,0 0.82219,-0.48096 1.65576,-1.06881 z m 3.14273,-1.335 -2.06271,-1.05444 -0.73892,0.52615 c -0.4064,0.28938 -0.89174,0.7103 -1.07854,0.93538 -0.55806,0.67242 -0.804,0.47126 -0.804,-0.65761 0,-0.87026 0.28031,-1.46745 1.52136,-3.241143 l 1.52135,-2.17432 0.0876,0.92245 c 0.0644,0.67881 0.60824,1.56979 2.05894,3.373433 1.08425,1.34805 1.87828,2.44504 1.76451,2.43777 -0.11377,-0.007 -1.13508,-0.48773 -2.26957,-1.06767 z m -51.260212,-1.89567 c -0.0057,-0.999963 -0.168696,-1.915123 -0.412414,-2.315103 -0.384939,-0.63175 -0.396504,-0.59611 -0.257508,0.79375 0.08004,0.80036 0.146568,1.842163 0.147833,2.315103 0.0013,0.47295 0.121362,0.8599 0.266883,0.8599 0.149166,0 0.260493,-0.72136 0.255206,-1.65365 z m 53.917072,-0.26577 c 0.0358,-0.617613 -0.1165,-1.505393 -0.33832,-1.972843 -0.23701,-0.49947 -0.33349,-1.12808 -0.23399,-1.52453 0.13781,-0.54907 0.0896,-0.644 -0.25928,-0.51014 -0.57444,0.22043 -0.77962,1.15517 -0.44612,2.03236 0.14951,0.39323 0.20453,0.89038 0.12227,1.10476 -0.11356,0.29592 0.77806,2.002223 1.04232,1.994693 0.0265,-7.9e-4 0.0774,-0.50669 0.11312,-1.1243 z m -41.59795,10e-4 c 0.08195,-0.327423 0.113979,-1.634403 0.07119,-2.904393 l -0.07781,-2.30921 -1.474769,2.90439 -1.474767,2.904393 h 1.403581 c 1.23503,0 1.421474,-0.0715 1.552575,-0.59531 z M 79.683731,99.774637 c 0.159893,-0.41978 0.106281,-0.73184 -0.181824,-1.05834 -0.928008,-1.05167 -1.543243,-0.12625 -0.708435,1.06561 0.51395,0.733773 0.608295,0.733003 0.890259,-0.007 z m 14.639009,-1.63965 c 1.15106,-1.44261 0.845461,-2.6763 -0.78604,-3.17322 -0.567811,-0.17294 -0.57455,-0.15394 -0.200067,0.56402 0.519179,0.99538 0.491006,1.39596 -0.145851,2.07387 -0.544058,0.57912 -0.482915,1.44725 0.101933,1.44723 0.16633,0 0.629843,-0.41036 1.030025,-0.9119 z m 51.6919,-0.29073 c -0.13915,-0.36261 -0.24366,-0.38378 -0.56756,-0.11497 -0.30814,0.25573 -0.32772,0.41298 -0.0875,0.70247 0.39558,0.47665 0.89238,0.0311 0.65502,-0.5875 z m -57.835982,-0.12027 c 0.314423,-0.60505 0.306199,-0.6305 -0.09645,-0.29834 -0.242107,0.19972 -0.440193,0.54699 -0.440193,0.7717 0,0.48041 0.0757,0.41364 0.536647,-0.47336 z m 55.819602,-1.07395 c 0,-0.13694 -0.17485,-0.24897 -0.38857,-0.24897 -0.23603,0 -0.32901,0.1552 -0.23686,0.39536 0.15618,0.40699 0.62543,0.29716 0.62543,-0.14639 z m -9.525,0.007 c 0.34697,-0.23217 0.33866,-0.31018 -0.0661,-0.62043 -0.56749,-0.43494 -0.58673,-0.79053 -0.0661,-1.22258 0.21828,-0.18115 0.39688,-0.55833 0.39688,-0.83817 0,-0.62946 -1.13982,-1.80766 -1.74877,-1.80766 -0.41911,0 -0.41993,0.0331 -0.012,0.48386 0.5344,0.59051 0.54341,1.07415 0.0326,1.74952 -0.51859,0.68564 -0.49073,1.00483 0.15991,1.83198 0.60636,0.77086 0.72632,0.80983 1.30371,0.42348 z m -8.90407,-12.12352 c 0.13635,-0.70893 0.0938,-0.85827 -0.21127,-0.74121 -0.21012,0.0806 -1.31098,0.47059 -2.44637,0.86658 -1.13538,0.39599 -2.10974,0.7551 -2.16525,0.79803 -0.0555,0.0429 0.16325,1.2212 0.48611,2.61838 l 0.58702,2.54033 1.7895,-2.59715 c 0.98423,-1.42843 1.86634,-2.99667 1.96026,-3.48496 z m -3.68268,3.57941 c -0.084,-0.21887 -0.11406,-0.72048 -0.0668,-1.11468 0.0695,-0.57997 0.32569,-0.81058 1.34265,-1.20856 0.69122,-0.2705 1.25677,-0.42624 1.25677,-0.3461 0,0.0802 -0.53548,0.80307 -1.18995,1.6065 -0.86179,1.05793 -1.23205,1.35104 -1.34264,1.06284 z"
       style="fill:#8c8c8c;fill-opacity:1;stroke-width:0.26458332" />
  </g>
</svg>
